<?xml version="1.0" encoding="UTF-8"?>
<svg width="16px" height="16px" viewBox="0 0 16 16" version="1.1" xmlns="http://www.w3.org/2000/svg" xmlns:xlink="http://www.w3.org/1999/xlink">
    <title>切片</title>
    <g id="模型推荐-new" stroke="none" stroke-width="1" fill="none" fill-rule="evenodd">
        <g id="模型推荐---智能推荐" transform="translate(-112.000000, -226.000000)" fill="#727CDD">
            <g id="编组-3" transform="translate(40.000000, 217.000000)">
                <g id="icon/星级备份" transform="translate(72.000000, 9.000000)">
                    <path d="M11,9.09090909 C11,8.58636364 10.5909091,8.18181818 10.0909091,8.18181818 L7.21818182,8.18181818 L7.65454545,6.10454545 C7.66363636,6.05909091 7.66818182,6.00909091 7.66818182,5.95909091 C7.66818182,5.77272727 7.59090909,5.6 7.46818182,5.47727273 L6.98636364,5 L3.99545455,7.99090909 C3.82727273,8.15909091 3.72727273,8.38636364 3.72727273,8.63636364 L3.72727273,13.1818182 C3.72727273,13.6838952 4.13428659,14.0909091 4.63636364,14.0909091 L8.72727273,14.0909091 C9.10454545,14.0909091 9.42727273,13.8636364 9.56363636,13.5363636 L10.9363636,10.3318182 C10.9772727,10.2272727 11,10.1181818 11,10 L11,9.09090909 M1,14.0909091 L2.81818182,14.0909091 L2.81818182,8.63636364 L1,8.63636364 L1,14.0909091 Z" id="形状"></path>
                    <polyline id="路径" points="12.5000067 2.4 13.3240657 3.91719397 15 4.24404931 13.833352 5.50859605 14.0450905 7.22771256 12.5000067 6.49197713 10.9547958 7.22771256 11.1666145 5.50859605 10 4.24404931 11.6759276 3.91719397 12.5000067 2.4"></polyline>
                </g>
            </g>
        </g>
    </g>
</svg>